<svg width="27" height="25" viewBox="0 0 27 25" fill="none" xmlns="http://www.w3.org/2000/svg">
<path d="M13.3906 0C6.28782 0 0.529785 5.59437 0.529785 12.4952C0.529785 19.396 6.28782 24.9904 13.3906 24.9904C13.778 24.9904 14.164 24.9735 14.5481 24.94C14.9052 24.9088 15.2592 24.8613 15.6104 24.8017L15.7454 24.7785C22.2757 23.5945 26.8035 17.7733 26.1927 11.3463C25.5819 4.91937 20.0336 0.00203372 13.3906 0V0ZM12.3573 24.1133H12.327C11.9935 24.0846 11.6626 24.0413 11.3346 23.9857C11.3157 23.9825 11.2969 23.9805 11.2785 23.977C10.9578 23.9213 10.6405 23.8521 10.3263 23.7714L10.2503 23.7525C9.94385 23.6717 9.64075 23.578 9.34205 23.4739C9.31107 23.4631 9.27988 23.4535 9.2489 23.4423C8.95606 23.3378 8.66845 23.2207 8.38523 23.094C8.35007 23.0787 8.3149 23.0641 8.27974 23.0478C8.00196 22.9229 7.72964 22.7822 7.46254 22.6341C7.42486 22.6134 7.38677 22.5926 7.34909 22.5721C7.08618 22.423 6.82934 22.2632 6.57732 22.0944C6.53922 22.0685 6.50071 22.0435 6.46282 22.0177C6.21519 21.8471 5.97384 21.6659 5.73877 21.4763L5.67409 21.4214V17.9098C5.67723 15.3806 7.78657 13.3313 10.3897 13.3282H16.3914C18.9945 13.3313 21.1039 15.3806 21.107 17.9098V21.4218L21.0501 21.468C20.8104 21.6624 20.5644 21.8463 20.3118 22.0199C20.2783 22.0427 20.2444 22.0645 20.2111 22.0869C19.9562 22.2589 19.6949 22.4208 19.4274 22.5729C19.3939 22.5918 19.3596 22.6097 19.3263 22.6284C19.0552 22.7783 18.7796 22.9199 18.4984 23.0474C18.4662 23.062 18.4338 23.0756 18.4011 23.0891C18.1156 23.217 17.8255 23.3347 17.5305 23.4401C17.5012 23.4507 17.4717 23.4598 17.4447 23.4698C17.1445 23.5743 16.8402 23.6689 16.5321 23.75L16.4582 23.7679C16.1436 23.8487 15.826 23.9182 15.5049 23.9741C15.4865 23.9774 15.4681 23.9796 15.4497 23.9825C15.1212 24.0382 14.7899 24.0815 14.4562 24.1104H14.4259C14.083 24.1391 13.7399 24.1545 13.3926 24.1545C13.0454 24.1545 12.6996 24.1419 12.3573 24.1133V24.1133ZM21.9644 20.6496V17.9098C21.9608 14.9208 19.4678 12.4987 16.3914 12.4952H10.3897C7.31329 12.4987 4.82027 14.9208 4.81671 17.9098V20.6492C0.199474 16.0707 0.250968 8.72996 4.93183 4.21286C9.6127 -0.304042 17.1684 -0.304042 21.8493 4.21286C26.5301 8.72996 26.5816 16.0707 21.9644 20.6492V20.6496Z" fill="white"/>
<path d="M13.3904 3.33203C11.0228 3.33203 9.10352 5.19675 9.10352 7.4971C9.10352 9.79744 11.0228 11.6622 13.3904 11.6622C15.7581 11.6622 17.6774 9.79744 17.6774 7.4971C17.6748 5.19777 15.757 3.33447 13.3904 3.33203ZM13.3904 10.8291C11.4963 10.8291 9.9609 9.33741 9.9609 7.4971C9.9609 5.65678 11.4963 4.16504 13.3904 4.16504C15.2846 4.16504 16.82 5.65678 16.82 7.4971C16.8179 9.3364 15.2835 10.8271 13.3904 10.8291Z" fill="white"/>
</svg>
